<?xml version="1.0" encoding="UTF-8" standalone="no"?><!DOCTYPE svg PUBLIC "-//W3C//DTD SVG 1.1//EN" "http://www.w3.org/Graphics/SVG/1.1/DTD/svg11.dtd"><svg x="0" y="0" viewBox="0 0 1920 1080" width="1920" height="1080" version="1.1" xmlns="http://www.w3.org/2000/svg" xmlns:xlink="http://www.w3.org/1999/xlink" style="display: block;margin-left: auto;margin-right: auto;"><rect id="svgBkgRect" x="0" y="0" width="1920" height="1080" style="fill:#000000;"></rect><g><use fill="#ffffff" stroke="#000000" stroke-width="0"  fill-opacity="0.92" stroke-opacity="1" transform="matrix(1,0,0,1,1693.4728786774674,646.7619432958243) scale(0.372,0.372)" xlink:href="#f2_231" x="-270.99609375" y="156.39175907258064"/><use fill="#ffffff" stroke="#000000" stroke-width="0"  fill-opacity="0.92" stroke-opacity="1" transform="matrix(1,0,0,1,1693.4728786774674,646.7619432958243) scale(0.372,0.372)" xlink:href="#f2_253" x="-74.21875" y="34.32144657258065"/><use fill="#ffffff" stroke="#000000" stroke-width="0"  fill-opacity="0.92" stroke-opacity="1" transform="matrix(1,0,0,1,1693.4728786774674,646.7619432958243) scale(0.372,0.372)" xlink:href="#f2_601" x="50.29296875" y="34.32144657258065"/></g><g><use fill="#ffffff" stroke="#000000" stroke-width="0"  fill-opacity="0.92" stroke-opacity="1" transform="matrix(1,0,0,1,1496.5744411774674,646.7619432958243) scale(0.372,0.372)" xlink:href="#f2_209" x="-258.30078125" y="156.39175907258064"/></g><g><use fill="#ffffff" stroke="#000000" stroke-width="0"  fill-opacity="0.92" stroke-opacity="1" transform="matrix(1,0,0,1,1412.6564724274674,646.7619432958243) scale(0.372,0.372)" xlink:href="#f2_776" x="-204.1015625" y="156.39175907258064"/><use fill="#ffffff" stroke="#000000" stroke-width="0"  fill-opacity="0.92" stroke-opacity="1" transform="matrix(1,0,0,1,1412.6564724274674,646.7619432958243) scale(0.372,0.372)" xlink:href="#f2_871" x="78.125" y="156.39175907258064"/></g><g><use fill="#ffffff" stroke="#000000" stroke-width="0"  fill-opacity="0.92" stroke-opacity="1" transform="matrix(1,0,0,1,1314.1972762167843,653.7901428619848) scale(0.372,0.372)" xlink:href="#f2_132" x="-59.08203125" y="156.39175907258064"/></g><g><use fill="#ffffff" stroke="#000000" stroke-width="0"  fill-opacity="0.92" stroke-opacity="1" transform="matrix(1,0,0,1,1075.3398543417843,653.7901428619848) scale(0.372,0.372)" xlink:href="#f2_345" x="-622.55859375" y="156.39175907258064"/><use fill="#ffffff" stroke="#000000" stroke-width="0"  fill-opacity="0.92" stroke-opacity="1" transform="matrix(1,0,0,1,1075.3398543417843,653.7901428619848) scale(0.372,0.372)" xlink:href="#f2_539" x="-202.63671875" y="156.39175907258064"/><use fill="#ffffff" stroke="#000000" stroke-width="0"  fill-opacity="0.92" stroke-opacity="1" transform="matrix(1,0,0,1,1075.3398543417843,653.7901428619848) scale(0.372,0.372)" xlink:href="#f2_255" x="88.37890625" y="156.39175907258064"/><use fill="#ffffff" stroke="#000000" stroke-width="0"  fill-opacity="0.92" stroke-opacity="1" transform="matrix(1,0,0,1,1075.3398543417843,653.7901428619848) scale(0.372,0.372)" xlink:href="#f2_618" x="450.1953125" y="156.39175907258064"/></g><g><use fill="#ffffff" stroke="#000000" stroke-width="0"  fill-opacity="0.92" stroke-opacity="1" transform="matrix(1,0,0,1,677.8444045722613,604.592745898861) scale(0.372,0.372)" xlink:href="#f2_760" x="-633.056640625" y="156.39175907258064"/><use fill="#ffffff" stroke="#000000" stroke-width="0"  fill-opacity="0.92" stroke-opacity="1" transform="matrix(1,0,0,1,677.8444045722613,604.592745898861) scale(0.372,0.372)" xlink:href="#f2_395" x="-109.619140625" y="177.87613407258064"/><use fill="#ffffff" stroke="#000000" stroke-width="0"  fill-opacity="0.92" stroke-opacity="1" transform="matrix(1,0,0,1,677.8444045722613,604.592745898861) scale(0.372,0.372)" xlink:href="#f2_539" x="270.751953125" y="177.87613407258064"/><use fill="#ffffff" stroke="#000000" stroke-width="0"  fill-opacity="0.92" stroke-opacity="1" transform="matrix(1,0,0,1,677.8444045722613,604.592745898861) scale(0.372,0.372)" xlink:href="#f2_853" x="561.767578125" y="177.87613407258064"/></g><g><use fill="#ffffff" stroke="#000000" stroke-width="0"  fill-opacity="0.92" stroke-opacity="1" transform="matrix(1,0,0,1,402.01313804907807,628.020077786063) scale(0.372,0.372)" xlink:href="#f2_900" x="-319.580078125" y="156.39175907258064"/></g><g><use fill="#ff0000" stroke="#000000" stroke-width="0"  fill-opacity="1" stroke-opacity="1" transform="matrix(1,0,0,1,1207.9133549688177,476.31291540130144) scale(0.372,0.372)" xlink:href="#f0_59" x="-40.5" y="492.6881720430107"/></g><g><use fill="#ffffff" stroke="#000000" stroke-width="0"  fill-opacity="0.92" stroke-opacity="1" transform="matrix(1,0,0,1,277.85179340089485,681.7684678348699) scale(0.372,0.372)" xlink:href="#f2_659" x="-65.4296875" y="156.39175907258064"/></g><g><use fill="#ffffff" stroke="#000000" stroke-width="0"  fill-opacity="0.92" stroke-opacity="1" transform="matrix(1,0,0,1,622.2335721427604,759.0786630626354) scale(0.372,0.372)" xlink:href="#f1_183" x="-1295.41015625" y="156.39175907258064"/></g><g><use fill="#ff0000" stroke="#000000" stroke-width="0"  fill-opacity="1" stroke-opacity="1" transform="matrix(1,0,0,1,961.9298845071856,747.9354920010843) scale(0.372,0.372)" xlink:href="#f0_63" x="-50.00000000000001" y="492.6881720430107"/></g><g><use fill="#ff0000" stroke="#000000" stroke-width="0"  fill-opacity="1" stroke-opacity="1" transform="matrix(1,0,0,1,1058.6074981358458,608.1350412147505) scale(0.372,0.372)" xlink:href="#f0_59" x="-40.5" y="492.6881720430107"/></g><g><use fill="#ff0000" stroke="#000000" stroke-width="0"  fill-opacity="1" stroke-opacity="1" transform="matrix(1,0,0,1,880.5597757931127,622.1914403470715) scale(0.372,0.372)" xlink:href="#f0_59" x="-40.5" y="492.6881720430107"/></g><g><use fill="#ff0000" stroke="#000000" stroke-width="0"  fill-opacity="1" stroke-opacity="1" transform="matrix(1,0,0,1,836.0478452074294,479.2847158351409) scale(0.372,0.372)" xlink:href="#f0_59" x="-40.5" y="492.6881720430107"/></g><g><use fill="#ff0000" stroke="#000000" stroke-width="0"  fill-opacity="1" stroke-opacity="1" transform="matrix(1,0,0,1,688.4556543180586,427.74458568329703) scale(0.372,0.372)" xlink:href="#f0_59" x="-40.5" y="492.6881720430107"/></g><g><use fill="#ff0000" stroke="#000000" stroke-width="0"  fill-opacity="1" stroke-opacity="1" transform="matrix(1,0,0,1,271.44914672586776,633.9051062906723) scale(0.372,0.372)" xlink:href="#f0_59" x="-40.5" y="492.6881720430107"/></g><g><use fill="#ff0000" stroke="#000000" stroke-width="0"  fill-opacity="1" stroke-opacity="1" transform="matrix(1,0,0,1,1358.4808606460142,474.46477616594325) scale(0.372,0.372)" xlink:href="#f0_63" x="-50.00000000000001" y="492.6881720430107"/></g><defs><path d="M108.40-75.68L108.40-75.68Q108.40-53.71 103.52-30.76L103.52-30.76Q95.21 11.72 89.36 11.72L89.36 11.72Q85.94 11.72 84.96-5.86L84.96-5.86Q82.52-43.46 82.52-47.85L82.52-47.85Q73.24-139.65 35.64-355.96L35.64-355.96Q24.90-416.02 7.32-535.64L7.32-535.64Q-1.46-543.46 0-547.36L0-547.36Q3.91-558.11 12.21-579.10L12.21-579.10Q19.04-596.68 20.51-596.68L20.51-596.68Q23.44-596.68 49.80-540.04L49.80-540.04Q79.10-477.05 75.20-474.12L75.20-474.12Q71.29-471.68 60.06-483.89L60.06-483.89Q56.64-487.79 42.97-501.46L42.97-501.46Q60.06-411.13 92.77-213.87L92.77-213.87Q108.40-110.84 108.40-75.68Z" id="f2_132"/><path d="M506.84-104.00L506.84-104.00Q506.84-53.22 477.05-18.07L477.05-18.07Q459.96 1.95 370.12 55.18L370.12 55.18Q275.88 110.84 229.00 125L229.00 125Q228.03 125.98 103.03 146.00L103.03 146.00Q51.76 154.79 42.97 154.79L42.97 154.79Q39.06 154.79 39.06 153.81L39.06 153.81Q39.06 149.90 96.19 128.91L96.19 128.91Q196.78 91.80 255.86 63.96L255.86 63.96Q340.82 25.88 418.95-21.97L418.95-21.97Q492.19-67.87 492.19-80.08L492.19-80.08Q492.19-85.94 479.00-94.24L479.00-94.24Q459.96-103.03 428.22-102.05L428.22-102.05Q365.23-98.14 365.23-147.95L365.23-147.95Q365.23-179.20 383.79-202.15L383.79-202.15Q401.86-224.12 421.88-224.12L421.88-224.12Q450.20-224.12 477.05-189.94L477.05-189.94Q506.84-152.83 506.84-104.00ZM448.24-154.79L448.24-154.79Q435.06-172.85 416.99-172.85L416.99-172.85Q411.13-172.85 403.56-168.95Q396.00-165.04 396.00-161.13L396.00-161.13Q396.00-154.79 408.20-152.83L408.20-152.83Q420.90-150.88 448.24-154.79Z" id="f2_209"/><path d="M196.78-24.41L196.78-24.41Q203.61-24.41 203.61-10.74L203.61-10.74Q203.61 24.41 185.06 24.41L185.06 24.41Q87.40 24.41 71.78-131.84L71.78-131.84Q39.06-464.84 0-543.95L0-543.95Q-0.98-546.39 6.35-570.80Q13.67-595.21 15.14-595.21L15.14-595.21Q17.58-595.21 27.34-570.80L27.34-570.80Q39.06-541.99 45.90-514.16L45.90-514.16Q66.41-429.20 80.57-310.06L80.57-310.06Q99.61-145.02 100.59-139.16L100.59-139.16Q118.65-24.41 196.78-24.41Z" id="f2_231"/><path d="M328.13 6.84L328.13 6.84Q330.08 9.77 318.12 31.49Q306.15 53.22 304.20 53.22L304.20 53.22Q238.77 53.22 184.08 70.80L184.08 70.80Q166.02 78.13 83.01 118.16L83.01 118.16Q25.88 146.00-12.21 146.00L-12.21 146.00Q-19.04 146.00-19.04 132.81L-19.04 132.81Q-19.04 98.14 0 98.14L0 98.14Q26.86 98.14 79.10 76.17L79.10 76.17Q112.79 61.04 146.00 44.92L146.00 44.92Q-44.92 25.88-44.92 21.00L-44.92 21.00Q-44.92 13.18-21.97-23.93L-21.97-23.93Q-13.18-24.90 54.20-14.16L54.20-14.16Q192.87 8.79 297.85 6.84L297.85 6.84Q328.13 5.86 328.13 6.84Z" id="f2_253"/><path d="M386.72-86.43L386.72-86.43Q386.72-58.11 361.82-24.41L361.82-24.41Q340.82 4.39 283.69 22.95L283.69 22.95Q235.35 38.57 195.31 38.57L195.31 38.57Q149.90 38.57 121.58 20.51L121.58 20.51Q109.86 47.85 104.49 46.39L104.49 46.39Q95.70 43.95 108.89 11.72L108.89 11.72Q81.54-10.25 74.71-40.53L74.71-40.53Q44.92 24.41-11.72 24.41L-11.72 24.41Q-18.55 24.41-18.55 10.74L-18.55 10.74Q-18.55-24.41 0-24.41L0-24.41Q34.67-24.41 57.62-55.66L57.62-55.66Q65.43-67.87 73.24-80.08L73.24-80.08Q83.98-96.68 89.36-96.68L89.36-96.68Q92.77-96.68 93.75-87.40L93.75-87.40Q94.73-74.22 95.70-70.80L95.70-70.80Q104.00-46.88 131.84-31.74L131.84-31.74Q209.47-171.39 286.13-171.39L286.13-171.39Q322.75-171.39 355.96-140.14L355.96-140.14Q386.72-110.84 386.72-86.43ZM361.82-58.59L361.82-58.59Q361.82-69.34 335.94-93.26L335.94-93.26Q304.69-122.07 271.97-122.07L271.97-122.07Q210.45-122.07 145.51-23.93L145.51-23.93Q171.88-11.72 207.52-11.72L207.52-11.72Q266.60-11.72 318.85-32.71L318.85-32.71Q361.82-49.80 361.82-58.59Z" id="f2_255"/><path d="M480.47-114.26L480.47-114.26Q480.47-70.31 449.71-41.99L449.71-41.99Q434.57-27.83 419.92-24.41L419.92-24.41Q427.25-24.41 427.25-10.74L427.25-10.74Q427.25 24.41 408.20 24.41L408.20 24.41Q328.13 24.41 274.90 17.09L274.90 17.09Q211.91 30.76 160.16 28.81L160.16 28.81Q141.60 28.32 111.33 16.60L111.33 16.60Q39.06-11.72 39.06-26.37L39.06-26.37Q39.55-27.34 42.48-27.34L42.48-27.34Q43.95-27.34 78.86-23.93Q113.77-20.51 141.11-20.51L141.11-20.51Q162.60-20.51 181.15-22.46L181.15-22.46Q192.38-36.62 220.21-73.73L220.21-73.73Q238.77-99.12 239.26-130.86L239.26-130.86Q239.75-178.22 203.61-383.30L203.61-383.30Q184.57-492.19 185.06-530.27L185.06-530.27Q173.83-545.90 173.83-544.92L173.83-544.92Q178.22-555.18 186.04-576.17L186.04-576.17Q192.38-591.80 194.82-591.80L194.82-591.80Q198.24-591.80 236.82-504.88L236.82-504.88Q246.09-482.91 242.68-480.47L242.68-480.47Q235.35-475.59 216.31-502.93L216.31-502.93Q238.28-376.95 263.18-180.18L263.18-180.18Q265.14-136.23 255.86-111.82L255.86-111.82Q335.94-183.11 390.63-181.15L390.63-181.15Q424.32-179.69 452.39-159.18Q480.47-138.67 480.47-114.26ZM454.59-83.98L454.59-83.98Q454.59-93.75 433.59-110.84L433.59-110.84Q407.71-132.32 374.02-133.79L374.02-133.79Q299.80-136.23 205.08-21.97L205.08-21.97Q323.73-33.20 399.90-58.11L399.90-58.11Q454.59-76.17 454.59-83.98Z" id="f2_345"/><path d="M379.88-23.93L379.88-23.93Q387.21-23.93 387.21-11.23L387.21-11.23Q387.21 23.93 369.14 23.93L369.14 23.93Q289.06 23.93 244.14 12.21L244.14 12.21Q186.04-4.88 134.77-51.76L134.77-51.76Q39.06 2.93-12.21 2.93L-12.21 2.93Q-19.04 2.93-19.04-11.23L-19.04-11.23Q-19.04-45.90 0-45.90L0-45.90Q39.06-45.90 105.96-80.08L105.96-80.08Q85.94-105.96 62.50-115.97Q39.06-125.98 11.23-117.19L11.23-117.19Q5.86-115.23 3.91-117.19L3.91-117.19Q2.93-118.16 4.88-123.05L4.88-123.05Q21.97-163.09 32.23-166.99L32.23-166.99Q58.11-175.78 82.03-179.20L82.03-179.20Q133.79-184.08 188.96-171.88L188.96-171.88Q235.84-163.09 264.16-146.97L264.16-146.97Q265.14-146.97 265.14-146.00L265.14-146.00Q265.14-140.14 257.57-122.07Q250-104.00 247.07-104.00L247.07-104.00Q210.94-98.14 178.22-75.20L178.22-75.20Q244.14-23.93 379.88-23.93ZM188.96-123.05L188.96-123.05Q161.13-136.23 122.07-131.84L122.07-131.84Q131.84-125 149.90-104.00L149.90-104.00Q165.04-110.84 188.96-123.05Z" id="f2_395"/><path d="M291.02-24.41L291.02-24.41Q298.34-24.41 298.34-10.74L298.34-10.74Q298.34 24.41 279.30 24.41L279.30 24.41Q234.86 24.41 229.49-40.04L229.49-40.04Q196.78-17.58 125.49 2.44L125.49 2.44Q48.34 24.41-11.72 24.41L-11.72 24.41Q-18.55 24.41-18.55 10.74L-18.55 10.74Q-18.55-24.41 0-24.41L0-24.41Q53.22-24.41 117.68-39.55L117.68-39.55Q186.52-55.66 226.07-79.59L226.07-79.59Q240.23-88.38 243.16-88.38L243.16-88.38Q248.05-88.38 247.07-79.59L247.07-79.59Q243.65-52.25 254.39-39.55L254.39-39.55Q267.58-24.41 291.02-24.41Z" id="f2_539"/><path d="M138.18-186.04L138.18-186.04Q138.18-180.18 129.15-159.67Q120.12-139.16 118.16-138.18L118.16-138.18Q98.14-129.88 50.78-111.82L50.78-111.82Q51.76-99.12 48.83-99.12L48.83-99.12Q44.92-99.12 39.06-106.93L39.06-106.93Q-108.89-44.92-146.00 17.09L-146.00 17.09L-146.00-23.93Q-112.79-82.03 14.16-140.14L14.16-140.14Q-2.93-158.20-2.93-176.76L-2.93-176.76Q-2.93-244.14 49.80-244.14L49.80-244.14Q64.94-244.14 102.05-217.77L102.05-217.77Q138.18-191.89 138.18-186.04ZM84.96-168.95L84.96-168.95Q46.88-193.85 33.20-193.85L33.20-193.85Q12.21-193.85 12.21-184.08L12.21-184.08Q13.18-179.20 37.11-149.90L37.11-149.90Q61.04-160.16 84.96-168.95Z" id="f2_601"/><path d="M133.79-118.16L133.79-118.16Q129.88-34.18 93.02-9.52Q56.15 15.14-26.86 27.83L-26.86 27.83Q-96.19 39.06-166.99 39.06L-166.99 39.06Q-172.85 39.06-172.85 24.90L-172.85 24.90Q-172.85-9.77-154.79-9.77L-154.79-9.77Q-97.17-9.77 0-23.93L0-23.93Q26.86-27.83 62.99-40.04L62.99-40.04Q110.84-57.13 111.82-70.80L111.82-70.80Q113.77-111.82 86.91-266.11L86.91-266.11Q66.89-377.93 46.88-490.23L46.88-490.23Q44.92-497.07 43.95-507.81L43.95-507.81Q41.99-513.18 37.11-521.00L37.11-521.00Q36.13-521.97 46.14-545.41Q56.15-568.85 58.11-568.85L58.11-568.85Q60.06-568.85 104.00-475.10L104.00-475.10Q117.19-448.24 112.79-445.80L112.79-445.80Q107.91-441.89 83.98-464.84L83.98-464.84Q137.21-167.97 133.79-118.16Z" id="f2_618"/><path d="M105.47-79.59L105.47-79.59Q105.47-44.92 89.36-20.51L89.36-20.51Q76.17-0.49 0 17.58L0 17.58L0-24.41Q17.58-29.30 55.66-40.53L55.66-40.53Q91.31-51.76 91.31-58.11L91.31-58.11Q91.31-67.87 62.01-102.05L62.01-102.05Q27.34-142.58 15.14-172.36L15.14-172.36Q15.14-173.83 10.74-178.47Q6.35-183.11 6.35-184.57L6.35-184.57Q6.35-187.99 9.77-207.76Q13.18-227.54 15.14-227.54L15.14-227.54Q19.53-227.54 43.46-206.05Q67.38-184.57 64.94-181.15L64.94-181.15Q63.48-179.20 43.95-185.55L43.95-185.55Q64.45-159.67 84.96-134.03Q105.47-108.40 105.47-79.59Z" id="f2_659"/><path d="M522.95-23.93L522.95-23.93Q529.79-23.93 529.79-11.23L529.79-11.23Q529.79 23.93 512.21 23.93L512.21 23.93Q513.18 55.18 505.86 73.24L505.86 73.24Q500.98 87.89 496.09 87.89L496.09 87.89Q493.16 87.89 479.49 80.57Q465.82 73.24 461.91 68.85L461.91 68.85Q432.13 37.11 435.06-1.95L435.06-1.95Q422.85-11.23 401.86-11.23L401.86-11.23Q355.96-11.23 311.04 21.97L311.04 21.97Q282.23 42.97 235.84 92.77L235.84 92.77Q148.93 187.01 117.19 187.01L117.19 187.01Q81.05 187.01 59.08 160.16L59.08 160.16Q39.06 134.77 39.06 101.07L39.06 101.07Q39.06 57.13 69.82 8.79L69.82 8.79Q79.10-4.88 95.21-21.00L95.21-21.00Q111.82-40.04 118.16-40.04L118.16-40.04Q121.09-40.04 121.09-37.11L121.09-37.11Q121.09-33.20 92.77 0L92.77 0Q54.20 48.83 54.20 99.12L54.20 99.12Q54.20 119.14 66.65 134.03Q79.10 148.93 100.10 148.93L100.10 148.93Q129.88 148.93 172.36 106.93Q214.84 64.94 255.86 21.97L255.86 21.97Q342.77-60.06 413.09-60.06L413.09-60.06Q426.76-60.06 442.87-51.76L442.87-51.76Q443.85-64.94 449.22-64.94L449.22-64.94Q448.24-64.94 470.21-41.99L470.21-41.99Q487.79-23.93 522.95-23.93ZM495.12 22.95L495.12 22.95Q479.00 21.00 462.89 8.79L462.89 8.79Q478.03 34.18 494.14 34.18L494.14 34.18Q496.09 26.86 495.12 22.95Z" id="f2_760"/><path d="M282.23-24.41L282.23-24.41Q289.06-24.41 289.06-10.74L289.06-10.74Q289.06 24.41 270.51 24.41L270.51 24.41Q175.29 24.41 154.30-108.89L154.30-108.89Q150.88-98.63 135.25-75.68L135.25-75.68Q122.56-62.50 96.19-53.71L96.19-53.71Q75.20-46.39 63.96-46.39L63.96-46.39Q39.06-46.39 39.06-77.64L39.06-77.64Q39.06-146.00 132.81-204.59L132.81-204.59Q123.05-235.84 123.05-235.35L123.05-235.35Q123.05-238.28 126.95-259.52Q130.86-280.76 132.81-280.76L132.81-280.76Q141.11-280.76 160.16-226.07L160.16-226.07Q168.95-233.89 188.48-254.39L188.48-254.39Q200.68-267.09 202.64-266.11L202.64-266.11Q207.52-262.70 194.34-238.77L194.34-238.77Q185.55-222.66 166.50-202.64L166.50-202.64Q167.97-197.75 177.25-136.72L177.25-136.72Q186.04-81.05 206.54-55.66L206.54-55.66Q231.45-24.41 282.23-24.41ZM147.46-135.74L147.46-135.74Q147.46-152.83 140.14-180.18L140.14-180.18Q122.07-169.43 93.75-146.48L93.75-146.48Q57.62-116.70 57.62-104.98L57.62-104.98Q57.62-94.73 74.22-94.73L74.22-94.73Q93.26-94.73 118.16-105.96L118.16-105.96Q147.46-119.14 147.46-135.74Z" id="f2_776"/><path d="M62.01-50.78L62.01-50.78Q62.01 23.93-12.21 23.93L-12.21 23.93Q-19.04 23.93-19.04 11.23L-19.04 11.23Q-19.04-23.93 0-23.93L0-23.93Q17.09-23.93 30.76-30.76L30.76-30.76Q43.95-36.13 43.95-41.02L43.95-41.02Q43.95-45.90 36.87-58.84Q29.79-71.78 29.79-71.78L29.79-71.78Q29.79-75.20 33.94-95.21Q38.09-115.23 40.04-115.23L40.04-115.23Q43.95-115.23 51.76-99.12L51.76-99.12Q62.01-78.13 62.01-50.78Z" id="f2_853"/><path d="M86.43-106.93L86.43-106.93Q86.91-54.69 62.50-17.09L62.50-17.09Q35.64 24.41-11.72 24.41L-11.72 24.41Q-18.55 24.41-18.55 10.74L-18.55 10.74Q-18.55-24.41 0-24.41L0-24.41Q22.46-24.41 41.02-36.13L41.02-36.13Q62.01-49.80 60.55-69.34L60.55-69.34Q56.15-131.35 30.76-277.83L30.76-277.83Q18.07-346.19-0.98-474.61L-0.98-474.61Q-9.77-482.42-8.30-486.33L-8.30-486.33Q-5.86-493.65 0.98-511.23L0.98-511.23Q10.25-535.16 12.21-535.16L12.21-535.16Q16.60-535.16 41.75-478.03Q66.89-420.90 66.89-414.55L66.89-414.55Q66.89-413.09 66.41-412.60L66.41-412.60Q62.99-410.16 51.76-422.85L51.76-422.85Q48.34-426.76 34.67-439.94L34.67-439.94Q51.76-342.77 68.85-246.09Q85.94-149.41 86.43-106.93Z" id="f2_871"/><path d="M629.39-172.36L629.39-172.36Q630.86-169.43 620.61-149.41Q610.35-129.39 606.45-127.44L606.45-127.44Q596.19-122.07 411.62-41.50L411.62-41.50Q318.36-0.98 271.00 45.90L271.00 45.90Q248.05 71.29 200.20 121.09L200.20 121.09Q148.93 172.85 110.35 172.85L110.35 172.85Q93.75 172.85 78.13 165.04L78.13 165.04Q39.06 145.02 39.06 95.21L39.06 95.21Q39.06 62.50 55.18 25.39L55.18 25.39Q70.31-8.79 90.33-28.81L90.33-28.81Q95.21-34.18 97.66-32.23L97.66-32.23Q100.10-30.27 97.66-25.88L97.66-25.88Q86.91-10.74 75.20 11.23L75.20 11.23Q55.18 47.36 55.18 79.10L55.18 79.10Q55.18 108.40 74.22 124.02L74.22 124.02Q85.45 133.30 100.10 133.30L100.10 133.30Q133.30 133.30 186.04 83.50L186.04 83.50Q212.89 55.18 256.84 9.77L256.84 9.77Q320.80-53.71 390.63-78.61L390.63-78.61Q368.65-86.91 344.73-112.30L344.73-112.30Q316.41-142.09 316.41-168.95L316.41-168.95Q316.41-222.66 356.93-255.86L356.93-255.86Q393.07-285.16 440.92-285.16L440.92-285.16Q485.84-285.16 537.11-250L537.11-250Q547.36-242.68 544.43-237.30L544.43-237.30Q541.99-232.91 529.30-240.72Q516.60-248.54 486.82-248.54L486.82-248.54Q445.80-248.54 395.51-235.35L395.51-235.35Q343.26-221.19 343.26-207.52L343.26-207.52Q343.26-179.20 384.52-146.24Q425.78-113.28 464.84-113.28L464.84-113.28Q495.61-113.28 599.61-162.11L599.61-162.11Q628.42-175.29 629.39-172.36Z" id="f2_900"/><path d="M31-174L82-144L57-100L6-130L31-174Z" id="f0_59"/><path d="M57-168L98-144L73-100L23-129L47-173L6-197L30-241L81-211L57-168Z" id="f0_63"/><path d="M2588.38-55.18L2588.38-55.18Q2588.38-50.29 2570.80-46.14Q2553.22-41.99 2535.16-39.06L2535.16-39.06Q2453.61-18.07 2376.46-13.18L2376.46-13.18Q2237.30-4.88 2007.32-4.88L2007.32-4.88L308.59-4.88Q115.23-4.88 78.61-8.30L78.61-8.30Q2.44-15.14 2.44-44.92L2.44-44.92Q2.44-75.20 36.62-118.16L36.62-118.16Q56.15-143.07 109.38-163.09L109.38-163.09Q141.60-175.29 154.30-182.13L154.30-182.13Q178.22-192.87 195.31-208.98L195.31-208.98Q203.61-216.31 242.19-269.04L242.19-269.04Q269.53-308.11 288.57-308.11L288.57-308.11Q300.29-308.11 309.57-283.20L309.57-283.20Q318.36-261.23 318.36-242.19L318.36-242.19Q318.36-228.03 312.26-206.05Q306.15-184.08 302.25-184.08L302.25-184.08Q301.27-184.08 296.39-209.96L296.39-209.96Q288.57-254.88 269.53-254.88L269.53-254.88Q247.56-254.88 213.38-199.22L213.38-199.22Q183.59-147.95 106.45-120.12L106.45-120.12Q34.18-94.24 34.18-77.15L34.18-77.15Q34.18-64.94 74.22-62.01L74.22-62.01Q133.30-57.13 342.29-57.13L342.29-57.13L2033.20-57.13Q2109.38-57.13 2260.50-59.08Q2411.62-61.04 2485.35-61.04L2485.35-61.04Q2588.38-61.04 2588.38-55.18Z" id="f1_183"/></defs></svg>